{"glyphs":{"0":{"ha":789,"x_min":72,"x_max":716,"o":"m 72 482 q 157 854 72 724 q 394 985 243 985 q 631 854 545 985 q 716 482 716 724 q 631 110 716 240 q 394 -21 545 -21 q 157 110 243 -21 q 72 482 72 240 m 581 482 q 571 632 581 561 q 541 755 562 703 q 483 840 519 808 q 394 871 447 871 q 305 840 341 871 q 248 755 269 808 q 217 632 226 703 q 208 482 208 561 q 217 332 208 403 q 248 208 226 261 q 305 124 269 155 q 394 93 341 93 q 483 124 447 93 q 541 208 519 155 q 571 332 562 261 q 581 482 581 403 z "},"1":{"ha":789,"x_min":132,"x_max":515,"o":"m 132 764 q 286 842 211 794 q 423 962 361 890 l 515 962 l 515 0 l 386 0 l 386 783 q 345 751 369 768 q 292 719 321 734 q 232 690 264 704 q 172 667 201 676 l 132 764 z "},"2":{"ha":789,"x_min":80,"x_max":683,"o":"m 651 717 q 631 620 651 667 q 577 529 610 574 q 502 440 544 484 q 419 354 460 396 q 364 298 395 330 q 305 232 333 267 q 259 165 277 197 q 240 110 240 134 l 683 110 l 683 0 l 100 0 q 98 17 98 8 l 98 32 q 120 153 98 97 q 176 260 141 210 q 254 354 211 310 q 338 440 296 399 q 404 506 373 473 q 460 572 435 539 q 499 639 484 604 q 513 713 513 673 q 500 783 513 754 q 465 832 487 812 q 413 860 443 851 q 349 869 382 869 q 276 858 309 869 q 216 832 243 847 q 172 802 190 818 q 144 778 154 786 l 80 869 q 117 904 92 884 q 177 942 142 924 q 255 972 212 960 q 348 985 298 985 q 575 915 499 985 q 651 717 651 844 z "},"3":{"ha":789,"x_min":79,"x_max":682,"o":"m 316 94 q 493 143 439 94 q 547 273 547 192 q 525 362 547 326 q 466 420 503 399 q 382 451 430 441 q 284 460 334 460 l 251 460 l 251 566 l 297 566 q 368 572 332 566 q 435 597 405 579 q 486 646 466 615 q 505 725 505 677 q 491 791 505 764 q 454 838 477 819 q 401 863 431 856 q 338 871 372 871 q 225 851 272 871 q 146 811 178 832 l 97 909 q 139 934 113 921 q 197 959 165 947 q 266 977 229 970 q 342 985 302 985 q 475 966 419 985 q 566 913 530 947 q 620 832 602 879 q 638 732 638 786 q 595 604 638 657 q 491 522 552 550 q 564 490 529 511 q 624 437 598 469 q 666 364 650 406 q 682 271 682 322 q 660 155 682 208 q 593 63 638 102 q 480 1 548 24 q 319 -21 412 -21 q 244 -15 283 -21 q 173 -1 206 -9 q 115 15 140 7 q 79 29 90 24 l 104 142 q 182 113 127 131 q 316 94 237 94 z "},"4":{"ha":789,"x_min":58,"x_max":728,"o":"m 58 334 q 131 476 85 395 q 234 643 176 557 q 358 812 292 729 q 490 962 424 896 l 614 962 l 614 351 l 728 351 l 728 245 l 614 245 l 614 0 l 489 0 l 489 245 l 58 245 l 58 334 m 489 810 q 405 710 447 765 q 322 596 363 656 q 247 474 282 536 q 183 351 211 411 l 489 351 l 489 810 z "},"5":{"ha":789,"x_min":93,"x_max":684,"o":"m 279 591 q 587 500 489 583 q 684 273 684 416 q 663 156 684 210 q 598 63 642 102 q 487 1 554 24 q 329 -21 420 -21 q 255 -15 293 -21 q 186 -1 218 -9 q 129 15 154 7 q 93 29 104 24 l 118 142 q 195 113 142 131 q 326 94 248 94 q 431 108 389 94 q 500 146 473 122 q 538 201 526 170 q 550 267 550 232 q 532 360 550 319 q 468 429 514 401 q 346 472 422 457 q 153 486 269 486 q 166 614 161 554 q 175 730 171 673 q 182 844 179 787 q 187 962 184 900 l 651 962 l 651 852 l 300 852 q 296 797 298 832 q 290 723 293 761 q 285 649 288 685 q 279 591 282 612 z "},"6":{"ha":789,"x_min":90,"x_max":715,"o":"m 90 386 q 129 634 90 526 q 240 815 168 742 q 413 927 311 889 q 643 966 515 965 l 652 859 q 504 840 571 857 q 383 787 436 823 q 294 694 330 751 q 240 551 258 636 q 321 579 276 568 q 415 590 367 590 q 554 565 497 590 q 647 499 611 541 q 699 405 683 458 q 715 293 715 351 q 697 184 715 240 q 642 83 679 129 q 549 8 606 37 q 414 -21 492 -21 q 173 87 256 -21 q 90 386 90 196 m 401 485 q 311 476 353 485 q 228 449 269 467 q 226 417 227 433 q 225 386 225 401 q 233 271 225 325 q 263 176 241 216 q 321 111 285 135 q 412 86 357 86 q 490 105 458 86 q 543 155 522 125 q 573 221 564 186 q 582 290 582 257 q 537 435 582 385 q 401 485 492 485 z "},"7":{"ha":789,"x_min":85,"x_max":698,"o":"m 229 0 q 268 234 237 111 q 345 473 299 357 q 446 688 391 589 q 553 850 500 787 l 85 850 l 85 962 l 698 962 l 698 856 q 597 710 652 803 q 492 503 541 618 q 407 259 442 389 q 363 0 372 129 l 229 0 z "},"8":{"ha":789,"x_min":79,"x_max":709,"o":"m 709 250 q 689 142 709 192 q 629 56 669 93 q 530 -1 590 20 q 393 -21 471 -21 q 242 5 302 -21 q 145 70 182 31 q 94 155 109 109 q 79 243 79 201 q 92 320 79 283 q 126 389 105 357 q 176 447 148 421 q 237 492 205 472 q 101 721 101 570 q 122 822 101 774 q 181 906 142 869 q 273 963 219 942 q 394 985 328 985 q 527 961 472 985 q 618 901 583 937 q 670 820 654 864 q 686 733 686 775 q 674 658 686 693 q 642 592 662 623 q 596 537 622 561 q 543 496 570 514 q 709 250 707 418 m 210 241 q 218 190 210 216 q 250 140 227 163 q 307 101 272 117 q 394 86 341 86 q 477 100 441 86 q 534 135 512 114 q 568 184 557 157 q 578 241 578 212 q 562 319 578 286 q 514 378 545 353 q 439 420 483 403 q 340 450 395 437 q 243 364 277 415 q 210 241 210 313 m 557 734 q 548 781 557 755 q 519 827 538 806 q 469 863 500 848 q 394 878 438 878 q 318 864 349 878 q 268 828 287 850 q 239 781 248 807 q 230 730 230 755 q 241 669 230 700 q 276 612 252 639 q 338 565 300 586 q 429 532 376 545 q 522 613 487 567 q 557 734 557 660 z "},"9":{"ha":789,"x_min":73,"x_max":699,"o":"m 699 578 q 556 145 699 292 q 133 -3 414 -1 l 129 106 q 287 122 216 106 q 409 176 357 139 q 497 271 462 212 q 549 414 533 329 q 468 387 513 397 q 373 376 422 376 q 235 401 292 376 q 141 466 178 425 q 89 561 105 507 q 73 672 73 614 q 91 779 73 724 q 146 881 109 835 q 240 956 183 926 q 374 985 297 985 q 514 957 454 985 q 615 876 574 929 q 677 748 656 823 q 699 578 699 672 m 387 482 q 479 491 436 482 q 562 518 522 500 q 564 548 564 533 l 564 578 q 555 692 564 637 q 525 788 547 747 q 468 853 504 829 q 376 878 431 878 q 298 858 330 878 q 245 809 267 839 q 216 744 224 779 q 207 675 207 708 q 252 531 207 581 q 387 482 297 482 z "}," ":{"ha":345,"x_min":0,"x_max":0,"o":""},"!":{"ha":389,"x_min":101,"x_max":287,"o":"m 264 701 q 255 490 264 585 q 235 300 247 395 l 154 300 q 133 490 141 395 q 125 701 125 585 l 125 962 l 264 962 l 264 701 m 287 75 q 262 9 287 37 q 194 -18 237 -18 q 126 9 151 -18 q 101 75 101 37 q 126 140 101 113 q 194 168 151 168 q 262 140 237 168 q 287 75 287 113 z "},"\"":{"ha":586,"x_min":102,"x_max":483,"o":"m 237 1055 l 237 986 q 229 844 237 918 q 208 696 220 770 l 132 696 q 111 844 119 770 q 102 987 102 918 l 102 1055 l 237 1055 m 483 1055 l 483 986 q 475 844 483 918 q 454 696 467 770 l 378 696 q 356 844 365 770 q 348 987 348 918 l 348 1055 l 483 1055 z "},"#":{"ha":932,"x_min":71,"x_max":861,"o":"m 397 708 l 622 708 l 671 962 l 787 962 l 739 708 l 861 708 l 861 606 l 718 606 l 671 357 l 861 357 l 861 254 l 651 254 l 602 0 l 486 0 l 534 254 l 309 254 l 261 0 l 144 0 l 193 254 l 71 254 l 71 357 l 212 357 l 260 606 l 71 606 l 71 708 l 280 708 l 329 962 l 446 962 l 397 708 m 329 357 l 554 357 l 602 606 l 378 606 l 329 357 z "},"$":{"ha":789,"x_min":87,"x_max":697,"o":"m 367 132 q 516 166 473 132 q 559 253 559 200 q 541 319 559 292 q 491 368 522 347 q 419 406 460 389 q 335 437 378 422 q 252 472 293 453 q 179 517 211 490 q 127 583 147 545 q 107 676 107 621 q 166 838 107 775 q 338 918 225 901 l 338 1078 l 453 1078 l 453 922 q 567 907 514 920 q 650 884 619 895 l 624 775 q 540 801 590 787 q 415 814 490 814 q 287 782 332 814 q 241 692 241 750 q 255 637 241 660 q 293 598 268 615 q 352 567 318 581 q 428 538 386 553 q 531 494 482 517 q 616 441 579 472 q 675 367 653 410 q 697 262 697 323 q 637 103 697 164 q 453 28 578 43 l 453 -151 l 338 -151 l 338 24 q 179 45 240 26 q 87 81 118 64 l 122 184 q 222 149 164 165 q 367 132 281 132 z "},"%":{"ha":1197,"x_min":72,"x_max":1124,"o":"m 72 728 q 89 838 72 790 q 135 918 105 885 q 205 967 165 950 q 293 983 245 983 q 380 967 340 983 q 450 918 420 950 q 497 838 480 885 q 513 728 513 790 q 497 618 513 665 q 450 538 480 571 q 380 489 420 505 q 293 472 340 472 q 205 489 245 472 q 135 538 165 505 q 89 618 105 571 q 72 728 72 665 m 406 728 q 376 845 406 803 q 293 888 347 888 q 210 845 239 888 q 180 728 180 803 q 210 611 180 653 q 293 568 239 568 q 376 611 347 568 q 406 728 406 653 m 683 235 q 700 345 683 297 q 746 425 716 392 q 816 474 776 457 q 904 490 857 490 q 991 474 951 490 q 1061 425 1031 457 q 1108 345 1091 392 q 1124 235 1124 297 q 1108 125 1124 172 q 1061 45 1091 78 q 991 -4 1031 12 q 904 -21 951 -21 q 816 -4 857 -21 q 746 45 776 12 q 700 125 716 78 q 683 235 683 172 m 1017 235 q 987 352 1017 310 q 904 395 958 395 q 821 352 850 395 q 791 235 791 310 q 821 118 791 160 q 904 75 850 75 q 987 118 958 75 q 1017 235 1017 160 m 933 962 l 390 0 l 264 0 l 806 962 l 933 962 z "},"&":{"ha":930,"x_min":66,"x_max":912,"o":"m 66 256 q 83 352 66 310 q 128 429 100 395 q 194 488 157 463 q 272 533 232 514 q 170 746 170 636 q 188 846 170 802 q 239 921 207 890 q 317 968 272 951 q 416 985 362 985 q 516 968 472 985 q 589 924 559 951 q 634 857 619 896 q 650 775 650 818 q 634 687 650 726 q 591 616 618 648 q 529 558 564 585 q 455 511 494 532 l 680 282 q 741 476 728 370 l 848 463 q 820 338 843 406 q 755 204 797 271 q 845 100 804 151 q 912 0 886 49 l 777 0 q 735 57 760 28 q 684 115 711 86 q 552 23 627 58 q 380 -12 477 -12 q 231 13 290 -12 q 134 78 171 39 q 82 165 97 118 q 66 256 66 212 m 195 258 q 205 204 195 233 q 237 151 215 175 q 295 110 260 126 q 383 94 330 94 q 509 119 451 94 q 611 191 566 144 l 340 464 q 290 435 315 452 q 243 394 264 418 q 209 336 222 370 q 195 258 195 302 m 533 771 q 502 851 533 818 q 416 884 471 884 q 323 847 355 884 q 290 755 290 810 q 385 579 290 665 q 442 613 415 595 q 489 654 469 631 q 521 706 509 677 q 533 771 533 734 z "},"'":{"ha":340,"x_min":102,"x_max":237,"o":"m 237 1055 l 237 986 q 229 844 237 918 q 208 696 220 770 l 132 696 q 111 844 119 770 q 102 987 102 918 l 102 1055 l 237 1055 z "},"(":{"ha":455,"x_min":111,"x_max":442,"o":"m 239 415 q 291 86 239 237 q 442 -195 342 -65 l 351 -257 q 177 47 243 -125 q 111 415 111 218 q 177 784 111 612 q 351 1088 243 956 l 442 1025 q 291 744 342 896 q 239 415 239 593 z "},")":{"ha":455,"x_min":12,"x_max":344,"o":"m 215 415 q 163 744 215 593 q 12 1025 112 896 l 104 1088 q 278 784 212 956 q 344 415 344 612 q 278 47 344 218 q 104 -257 212 -125 l 12 -195 q 163 86 112 -65 q 215 415 215 237 z "},"*":{"ha":672,"x_min":54,"x_max":617,"o":"m 398 951 q 388 840 398 893 q 366 729 377 786 q 465 783 416 757 q 570 829 513 810 l 578 832 l 617 715 l 606 711 q 495 684 551 690 q 381 673 439 677 q 468 598 427 635 q 543 513 508 561 l 549 503 l 448 432 l 442 440 q 385 539 409 490 q 336 642 361 589 q 286 539 311 589 q 229 440 262 490 l 223 432 l 121 503 l 129 513 q 204 598 163 561 q 290 673 244 635 q 176 684 231 677 q 64 711 120 690 l 54 715 l 92 832 l 101 829 q 207 783 158 810 q 305 729 255 757 q 283 840 294 786 q 273 951 273 893 l 273 962 l 398 962 l 398 951 z "},"+":{"ha":789,"x_min":76,"x_max":712,"o":"m 76 464 l 338 464 l 338 750 l 450 750 l 450 464 l 712 464 l 712 354 l 450 354 l 450 66 l 338 66 l 338 354 l 76 354 l 76 464 z "},",":{"ha":347,"x_min":55,"x_max":251,"o":"m 250 158 q 251 137 251 147 l 251 115 q 225 -58 251 28 q 155 -221 199 -143 l 55 -189 q 101 -45 90 -118 q 112 92 112 28 q 111 126 112 110 q 109 158 111 143 l 250 158 z "},"-":{"ha":420,"x_min":39,"x_max":382,"o":"m 39 456 l 382 456 l 382 335 l 39 335 l 39 456 z "},".":{"ha":347,"x_min":80,"x_max":266,"o":"m 266 75 q 241 9 266 37 q 173 -18 216 -18 q 105 9 130 -18 q 80 75 80 37 q 105 140 80 113 q 173 168 130 168 q 241 140 216 168 q 266 75 266 113 z "},"/":{"ha":538,"x_min":-31,"x_max":570,"o":"m 102 -257 l -31 -257 l 440 1088 l 570 1088 l 102 -257 z "},":":{"ha":347,"x_min":80,"x_max":266,"o":"m 266 75 q 241 9 266 37 q 173 -18 216 -18 q 105 9 130 -18 q 80 75 80 37 q 105 140 80 113 q 173 168 130 168 q 241 140 216 168 q 266 75 266 113 m 266 629 q 241 564 266 591 q 173 536 216 536 q 105 564 130 536 q 80 629 80 591 q 105 694 80 667 q 173 722 130 722 q 241 694 216 722 q 266 629 266 667 z "},";":{"ha":347,"x_min":55,"x_max":266,"o":"m 250 158 q 251 137 251 147 l 251 115 q 225 -58 251 28 q 155 -221 199 -143 l 55 -189 q 101 -45 90 -118 q 112 92 112 28 q 111 126 112 110 q 109 158 111 143 l 250 158 m 266 629 q 241 564 266 591 q 173 536 216 536 q 105 564 130 536 q 80 629 80 591 q 105 694 80 667 q 173 722 130 722 q 241 694 216 722 q 266 629 266 667 z "},"<":{"ha":789,"x_min":76,"x_max":712,"o":"m 219 408 l 712 205 l 676 98 l 76 353 l 76 464 l 676 718 l 712 611 l 219 408 z "},"=":{"ha":789,"x_min":76,"x_max":712,"o":"m 76 315 l 712 315 l 712 205 l 76 205 l 76 315 m 76 611 l 712 611 l 712 501 l 76 501 l 76 611 z "},">":{"ha":789,"x_min":76,"x_max":712,"o":"m 76 611 l 112 718 l 712 464 l 712 353 l 112 98 l 76 205 l 569 408 l 76 611 z "},"?":{"ha":566,"x_min":29,"x_max":526,"o":"m 244 876 q 65 829 153 876 l 29 929 q 136 969 77 954 q 261 985 195 985 q 391 963 340 985 q 472 908 441 942 q 514 834 503 875 q 526 755 526 793 q 508 671 526 708 q 464 603 490 635 q 406 542 437 571 q 347 481 374 513 q 303 413 321 450 q 285 330 285 376 l 285 315 q 286 300 285 307 l 178 300 q 172 358 172 328 q 188 439 172 403 q 229 506 204 475 q 282 565 254 538 q 335 619 310 591 q 376 677 359 647 q 392 745 392 708 q 354 840 392 803 q 244 876 317 876 m 332 75 q 307 9 332 37 q 239 -18 282 -18 q 171 9 196 -18 q 146 75 146 37 q 171 140 146 113 q 239 168 196 168 q 307 140 282 168 q 332 75 332 113 z "},"@":{"ha":1324,"x_min":93,"x_max":1232,"o":"m 961 60 q 887 72 916 60 q 839 106 858 85 q 765 77 808 89 q 679 65 722 65 q 557 86 612 65 q 462 148 503 107 q 400 249 422 189 q 378 387 378 309 q 398 513 378 454 q 460 616 419 572 q 560 685 501 660 q 694 710 619 710 q 824 699 765 710 q 915 676 883 688 l 915 252 q 930 189 915 207 q 970 171 945 171 q 1034 196 1007 171 q 1078 261 1061 221 q 1104 352 1096 301 q 1112 456 1112 403 q 1082 620 1112 543 q 994 755 1051 697 q 856 847 937 814 q 673 880 775 880 q 488 846 572 880 q 341 749 403 812 q 246 594 280 686 q 212 386 212 503 q 249 172 212 264 q 349 17 285 79 q 502 -76 414 -45 q 696 -107 590 -107 q 831 -97 778 -107 q 900 -82 884 -87 l 913 -184 q 828 -203 890 -193 q 696 -212 766 -212 q 463 -177 572 -212 q 271 -69 353 -142 q 141 117 189 4 q 93 386 93 231 q 140 649 93 536 q 267 835 187 761 q 452 947 347 909 q 673 985 557 985 q 889 948 787 985 q 1066 841 990 911 q 1187 672 1143 771 q 1232 447 1232 572 q 1210 280 1232 353 q 1153 159 1189 208 q 1066 85 1116 110 q 961 60 1017 60 m 683 172 q 742 178 712 172 q 795 197 772 184 q 790 233 791 215 q 789 268 789 252 l 789 595 q 757 600 781 597 q 704 603 733 603 q 557 542 606 603 q 508 387 508 481 q 555 231 508 289 q 683 172 603 172 z "},"ກ":{"ha":904,"x_min":51,"x_max":793,"o":"m 190 579 q 201 581 195 579 q 214 583 208 582 l 214 676 q 208 699 214 692 q 190 707 202 707 q 141 689 159 707 q 123 642 123 672 q 141 596 123 614 q 190 579 159 579 m 793 0 l 679 0 l 679 525 q 671 595 679 566 q 642 647 663 625 q 595 677 621 668 q 524 686 569 686 q 434 656 479 686 q 328 567 390 627 l 328 115 q 291 20 328 54 q 189 -14 255 -14 q 86 20 121 -14 q 51 115 51 54 q 85 210 51 176 q 183 244 119 244 q 200 243 191 244 q 214 241 209 243 l 214 515 q 201 514 208 514 l 190 514 q 89 547 126 514 q 51 642 51 581 q 86 737 51 703 q 189 771 121 771 q 285 743 252 771 q 324 664 317 714 q 434 751 386 725 q 538 778 481 778 q 647 763 602 778 q 727 712 691 747 q 778 628 764 677 q 793 525 793 579 l 793 0 m 190 52 q 236 69 218 52 q 254 115 254 86 q 236 161 254 144 q 190 178 218 178 q 141 161 159 178 q 123 115 123 144 q 141 69 123 86 q 190 52 159 52 z "},"ຂ":{"ha":894,"x_min":76,"x_max":829,"o":"m 216 493 q 263 510 245 493 q 281 557 281 528 q 263 603 281 586 q 216 619 245 619 q 170 603 189 619 q 151 557 151 586 q 170 510 151 528 q 216 493 189 493 m 744 -4 q 691 68 723 35 q 622 102 659 102 q 554 85 593 102 q 468 45 515 69 q 372 4 422 21 q 255 -14 321 -14 q 122 25 169 -14 q 76 127 76 64 q 122 251 76 204 q 242 326 169 297 q 390 375 316 354 q 526 423 465 396 q 626 483 587 450 q 665 557 665 515 q 652 605 665 583 q 612 646 640 627 q 542 676 585 665 q 448 686 500 686 q 368 681 405 686 q 300 663 330 675 q 341 616 328 642 q 355 557 355 590 q 319 463 355 496 q 218 429 283 429 q 114 463 150 429 q 79 553 79 496 l 79 557 q 110 657 79 614 q 198 728 141 701 q 318 767 255 755 q 452 778 380 778 q 584 764 523 778 q 693 721 644 750 q 763 651 743 692 q 783 561 783 610 q 730 424 783 473 q 621 345 677 374 q 495 294 564 315 q 354 249 427 273 q 237 201 280 225 q 194 136 194 176 q 211 94 194 109 q 255 79 229 79 l 262 79 q 332 93 299 79 q 427 135 368 107 q 531 178 487 163 q 627 193 576 193 q 743 154 695 193 q 829 49 791 115 l 744 -4 z "},"ຄ":{"ha":904,"x_min":93,"x_max":793,"o":"m 294 53 q 341 70 323 53 q 359 117 359 86 q 341 162 359 144 q 294 179 323 179 q 249 162 267 179 q 231 117 231 144 q 249 70 231 86 q 294 53 267 53 m 793 0 l 679 0 l 679 460 q 619 624 679 561 q 441 686 559 686 q 263 637 322 686 q 204 515 204 589 l 204 510 q 296 536 245 536 q 399 502 365 536 q 433 424 433 467 q 396 342 433 372 q 298 313 359 313 q 251 316 273 313 q 207 328 228 319 q 205 287 205 313 q 204 237 204 261 q 207 214 204 225 q 250 238 227 231 q 301 245 273 245 q 398 212 363 245 q 433 117 433 178 q 398 22 433 56 q 296 -12 362 -12 q 143 56 193 -12 q 93 236 93 125 q 100 330 93 289 q 118 403 106 371 q 99 454 105 427 q 93 511 93 482 q 193 707 93 636 q 443 778 293 778 q 702 692 611 778 q 793 460 793 607 l 793 0 m 298 378 q 344 391 329 379 q 359 424 359 403 q 342 459 359 449 q 296 469 325 469 q 254 453 272 469 q 227 416 236 437 q 258 389 237 400 q 298 378 279 378 z "},"ງ":{"ha":703,"x_min":64,"x_max":591,"o":"m 268 557 q 250 603 268 586 q 203 619 232 619 q 157 603 175 619 q 139 557 139 586 q 157 510 139 528 q 203 493 175 493 q 250 510 232 493 q 268 557 268 528 m 318 -330 q 174 -299 237 -330 q 64 -204 111 -268 l 140 -132 q 224 -214 179 -189 q 318 -239 269 -239 q 434 -192 391 -239 q 477 -52 477 -144 l 477 482 q 436 636 477 586 q 322 686 394 686 q 285 684 304 686 q 254 675 267 682 q 317 635 293 663 q 342 557 342 607 q 306 463 342 496 q 204 429 269 429 q 101 463 138 429 q 65 553 65 496 l 65 557 q 140 723 65 668 q 319 778 215 778 q 518 704 444 778 q 591 482 591 629 l 591 -24 q 517 -256 591 -182 q 318 -330 443 -330 z "},"ຈ":{"ha":880,"x_min":41,"x_max":769,"o":"m 390 302 q 436 320 418 302 q 454 366 454 338 q 436 413 454 396 q 390 431 418 431 q 341 413 359 431 q 323 366 323 396 q 341 320 323 338 q 390 302 359 302 m 591 -14 q 455 32 496 -14 q 414 167 414 77 l 414 239 q 400 237 410 237 q 383 236 391 236 q 285 270 319 236 q 251 366 251 304 q 287 460 251 427 q 389 494 322 494 q 491 460 455 494 q 528 366 528 427 l 528 163 q 546 97 528 115 q 593 79 564 79 q 637 97 619 79 q 655 163 655 115 l 655 488 q 603 635 655 585 q 435 686 551 686 q 237 648 318 686 q 138 511 155 610 l 41 530 q 173 724 65 669 q 435 778 281 778 q 689 702 608 778 q 769 496 769 625 l 769 167 q 727 33 769 78 q 591 -14 686 -12 z "},"ຊ":{"ha":894,"x_min":76,"x_max":854,"o":"m 216 493 q 263 510 245 493 q 281 557 281 528 q 263 603 281 586 q 216 619 245 619 q 170 603 189 619 q 151 557 151 586 q 170 510 151 528 q 216 493 189 493 m 783 -278 q 729 -233 745 -262 q 707 -82 713 -203 q 681 70 701 39 q 622 102 661 102 q 528 74 587 102 q 445 34 468 46 q 372 4 422 21 q 255 -14 321 -14 q 122 25 169 -14 q 76 127 76 64 q 122 251 76 204 q 242 326 169 297 q 390 375 316 354 q 526 423 465 396 q 626 483 587 450 q 665 557 665 515 q 652 605 665 583 q 612 646 640 627 q 542 676 585 665 q 448 686 500 686 q 368 681 405 686 q 300 663 330 675 q 341 616 328 642 q 355 557 355 590 q 319 463 355 496 q 218 429 283 429 q 114 463 150 429 q 79 553 79 496 l 79 557 q 110 657 79 614 q 198 728 141 701 q 318 767 255 755 q 452 778 380 778 q 584 764 523 778 q 693 721 644 750 q 763 651 743 692 q 783 561 783 610 q 730 424 783 473 q 621 345 677 374 q 495 294 564 315 q 354 249 427 273 q 237 201 280 225 q 194 136 194 176 q 211 94 194 109 q 255 79 229 79 l 262 79 q 332 93 299 79 q 429 136 368 107 q 534 179 490 164 q 627 193 578 193 q 748 148 703 193 q 798 -18 794 103 q 813 -171 801 -139 q 854 -211 826 -203 l 783 -278 z "},"ຍ":{"ha":911,"x_min":85,"x_max":800,"o":"m 294 579 q 342 596 324 579 q 361 642 361 614 q 342 689 361 672 q 294 707 324 707 q 248 689 266 707 q 230 642 230 672 q 248 596 230 614 q 294 579 266 579 m 430 -14 q 286 -2 352 -14 q 177 35 220 9 q 110 99 134 60 q 85 191 85 138 q 96 251 85 225 q 125 297 106 277 q 170 333 144 318 q 231 359 197 349 q 170 390 197 372 q 125 431 144 407 q 96 484 106 454 q 85 550 85 513 q 101 647 85 606 q 146 715 116 688 q 213 757 176 743 q 295 771 251 771 q 397 737 362 771 q 433 642 433 703 q 399 547 433 581 q 300 514 365 514 q 208 546 245 514 q 203 521 203 534 q 215 473 203 494 q 249 436 227 452 q 311 413 271 421 q 395 406 345 406 l 412 406 l 412 315 q 314 307 348 315 q 254 282 280 298 q 215 244 229 265 q 202 193 202 222 q 215 146 202 167 q 256 108 229 125 q 328 85 283 92 q 430 79 373 79 q 543 89 492 79 q 625 121 594 98 q 670 174 655 143 q 686 252 686 205 l 686 764 l 800 764 l 800 252 q 777 139 800 186 q 710 54 755 93 q 587 1 665 16 q 430 -14 509 -14 z "},"ດ":{"ha":904,"x_min":111,"x_max":793,"o":"m 248 53 q 297 70 279 53 q 315 117 315 86 q 297 162 315 144 q 248 179 279 179 q 202 162 220 179 q 184 117 184 144 q 202 70 184 86 q 248 53 220 53 m 793 0 l 679 0 l 679 460 q 631 627 679 568 q 452 686 583 686 q 274 628 324 686 q 224 460 224 570 l 224 243 q 238 245 229 244 q 255 245 247 245 q 352 212 317 245 q 387 117 387 178 q 352 22 387 56 q 250 -12 316 -12 q 146 22 182 -12 q 111 117 111 56 l 111 460 q 201 705 111 629 q 446 778 290 778 l 451 778 q 715 691 637 778 q 793 460 793 604 l 793 0 z "},"ຕ":{"ha":904,"x_min":111,"x_max":793,"o":"m 793 0 l 679 0 l 679 521 q 675 592 679 561 q 665 643 671 623 q 647 675 659 664 q 619 686 635 686 q 581 671 595 686 q 558 635 566 656 q 543 594 549 615 q 526 552 537 572 q 497 517 515 532 q 452 503 480 503 q 406 517 423 503 q 377 552 389 532 q 360 594 366 572 q 345 635 353 615 q 322 671 337 656 q 284 686 308 686 q 257 675 269 686 q 238 643 245 664 q 228 592 231 623 q 224 521 224 561 l 224 243 q 238 245 229 244 q 255 245 247 245 q 352 212 317 245 q 387 117 387 178 q 352 22 387 56 q 250 -12 316 -12 q 146 22 182 -12 q 111 117 111 56 l 111 521 q 126 653 111 603 q 167 730 142 704 q 221 767 191 757 q 286 778 251 778 q 394 729 355 778 q 452 596 434 681 q 508 729 469 681 q 618 778 548 778 q 682 767 652 778 q 736 730 712 757 q 777 653 760 704 q 793 521 793 603 l 793 0 m 315 117 q 297 162 315 144 q 248 179 279 179 q 202 162 220 179 q 184 117 184 144 q 202 70 184 86 q 248 53 220 53 q 297 70 279 53 q 315 117 315 86 z "},"ຖ":{"ha":932,"x_min":31,"x_max":821,"o":"m 170 579 q 181 581 175 579 q 193 585 187 582 l 193 676 q 187 700 193 693 q 170 707 180 707 q 122 689 140 707 q 104 642 104 672 q 122 596 104 614 q 170 579 140 579 m 821 -278 l 707 -278 l 707 525 q 699 595 707 566 q 669 647 690 625 q 622 677 647 668 q 553 686 596 686 q 441 658 497 686 q 307 562 385 629 l 307 243 q 320 245 311 244 q 338 245 329 245 q 435 212 401 245 q 469 117 469 178 q 434 22 469 56 q 332 -12 399 -12 q 229 22 265 -12 q 193 117 193 56 l 193 515 q 180 514 186 514 l 170 514 q 69 547 107 514 q 31 642 31 581 q 66 737 31 703 q 168 771 102 771 q 264 743 232 771 q 306 660 297 714 q 439 754 378 729 q 560 778 498 778 l 567 778 q 674 763 631 778 q 755 712 718 747 q 806 628 791 677 q 821 525 821 579 l 821 -278 m 330 53 q 379 70 361 53 q 397 117 397 86 q 379 162 397 144 q 330 179 361 179 q 284 162 302 179 q 267 117 267 144 q 284 70 267 86 q 330 53 302 53 z "},"ທ":{"ha":952,"x_min":51,"x_max":840,"o":"m 190 579 q 236 596 218 579 q 254 642 254 614 q 236 689 254 672 q 190 707 218 707 q 141 689 159 707 q 123 642 123 672 q 141 596 123 614 q 190 579 159 579 m 840 0 l 726 0 l 726 572 q 720 622 726 600 q 700 658 713 644 q 670 679 687 672 q 631 685 652 685 q 592 679 609 685 q 563 658 574 672 q 544 624 551 644 q 537 572 537 603 l 537 204 q 520 107 537 149 q 473 40 504 66 q 402 0 443 14 q 307 -14 361 -14 q 228 -3 264 -14 q 154 39 191 7 q 98 120 117 72 q 79 240 79 168 q 108 368 79 315 q 168 449 137 421 q 214 492 199 476 q 233 524 229 509 q 183 514 214 514 q 85 547 119 514 q 51 642 51 581 q 86 737 51 703 q 189 771 121 771 q 309 726 271 771 q 347 616 347 681 q 327 529 347 574 q 271 437 307 484 q 216 341 235 390 q 197 243 197 293 q 207 160 197 197 q 236 107 218 123 q 272 85 255 92 q 301 79 286 79 l 308 79 q 355 86 333 79 q 393 110 377 93 q 416 151 409 126 q 423 203 423 175 l 423 572 q 440 670 423 632 q 486 732 458 708 q 552 766 515 755 q 631 777 589 777 q 711 766 671 777 q 778 730 751 755 q 822 669 805 705 q 840 572 840 632 l 840 0 z "},"ນ":{"ha":904,"x_min":51,"x_max":793,"o":"m 190 579 q 236 596 218 579 q 254 642 254 612 q 236 688 254 671 q 190 705 218 705 q 141 688 159 705 q 123 642 123 671 q 141 596 123 612 q 190 579 159 579 m 534 -14 q 402 22 462 -14 q 304 117 342 57 q 229 21 279 56 q 100 -14 178 -14 l 63 -14 l 63 78 l 100 78 q 190 117 166 78 q 214 227 214 157 l 214 515 q 200 513 209 514 q 183 513 191 513 q 85 546 119 513 q 51 642 51 579 q 86 737 51 703 q 189 771 121 771 q 291 737 255 771 q 328 642 328 703 l 328 220 q 404 117 352 157 q 529 79 454 79 l 534 79 q 645 118 610 79 q 679 227 679 157 l 679 764 l 793 764 l 793 227 q 724 51 793 114 q 534 -14 655 -12 z "},"ບ":{"ha":904,"x_min":51,"x_max":793,"o":"m 190 579 q 236 596 218 579 q 254 642 254 614 q 236 689 254 672 q 190 707 218 707 q 141 689 159 707 q 123 642 123 672 q 141 596 123 614 q 190 579 159 579 m 433 -14 q 272 6 340 -14 q 160 60 203 25 q 97 141 116 94 q 79 240 79 187 q 108 368 79 315 q 168 449 137 421 q 214 492 199 476 q 233 524 229 509 q 183 514 214 514 q 85 547 119 514 q 51 642 51 581 q 86 737 51 703 q 189 771 121 771 q 309 726 271 771 q 347 616 347 681 q 327 529 347 574 q 271 437 307 484 q 216 341 235 390 q 197 243 197 293 q 213 173 197 203 q 256 121 229 143 q 329 90 284 100 q 433 79 374 79 q 548 95 504 79 q 621 135 591 110 q 664 199 650 160 q 679 290 679 239 l 679 764 l 793 764 l 793 290 q 770 162 793 216 q 704 70 747 109 q 593 8 661 31 q 433 -14 526 -14 z "},"ປ":{"ha":904,"x_min":51,"x_max":793,"o":"m 190 579 q 236 596 218 579 q 254 642 254 614 q 236 689 254 672 q 190 707 218 707 q 141 689 159 707 q 123 642 123 672 q 141 596 123 614 q 190 579 159 579 m 433 -14 q 272 6 340 -14 q 160 60 203 25 q 97 141 116 94 q 79 240 79 187 q 108 368 79 315 q 168 449 137 421 q 214 492 199 476 q 233 524 229 509 q 183 514 214 514 q 85 547 119 514 q 51 642 51 581 q 86 737 51 703 q 189 771 121 771 q 309 726 271 771 q 347 616 347 681 q 327 529 347 574 q 271 437 307 484 q 216 341 235 390 q 197 243 197 293 q 213 173 197 203 q 256 121 229 143 q 329 90 284 100 q 433 79 374 79 q 547 95 503 79 q 621 135 591 110 q 664 199 650 160 q 679 290 679 239 l 679 1055 l 793 1055 l 793 290 q 770 162 793 216 q 704 70 747 109 q 593 8 661 31 q 433 -14 526 -14 z "},"ຜ":{"ha":1023,"x_min":111,"x_max":997,"o":"m 645 -14 q 554 6 594 -14 q 487 65 515 26 q 421 8 460 31 q 327 -14 382 -14 q 168 40 226 -14 q 111 203 111 93 l 112 642 q 147 737 112 703 q 251 771 182 771 q 352 737 316 771 q 389 642 389 703 q 354 546 389 579 q 256 513 319 513 q 238 513 248 513 q 226 515 229 514 l 224 203 q 251 109 224 139 q 327 79 277 79 q 404 111 378 79 q 430 203 430 142 l 430 311 l 544 311 l 543 203 q 570 109 543 138 q 645 79 598 79 q 722 109 695 79 q 748 203 748 139 l 748 514 l 724 514 q 624 547 662 514 q 585 642 585 581 q 622 737 585 703 q 723 771 658 771 q 818 740 784 771 q 859 650 851 708 q 891 712 879 676 q 911 786 903 747 l 997 751 q 944 631 977 682 q 862 550 911 579 l 862 203 q 804 41 862 96 q 645 -14 747 -14 m 724 579 q 736 580 730 579 q 748 581 743 581 l 748 676 q 743 699 748 692 q 724 707 737 707 q 676 689 694 707 q 659 642 659 672 q 676 596 659 614 q 724 579 694 579 m 315 642 q 297 688 315 671 q 250 705 279 705 q 203 688 222 705 q 184 642 184 671 q 203 596 184 612 q 250 579 222 579 q 297 596 279 579 q 315 642 315 612 z "},"ຝ":{"ha":973,"x_min":111,"x_max":862,"o":"m 645 -14 q 554 6 594 -14 q 487 65 515 26 q 421 8 460 29 q 327 -14 382 -14 q 168 40 226 -14 q 111 203 111 93 l 112 642 q 147 737 112 703 q 251 771 182 771 q 352 737 316 771 q 389 642 389 703 q 354 546 389 579 q 256 513 319 513 q 238 513 248 513 q 226 515 229 514 l 224 203 q 251 109 224 139 q 323 79 276 79 l 327 79 q 404 111 377 79 q 430 203 430 142 l 430 311 l 544 311 l 543 203 q 570 109 543 138 q 645 79 598 79 q 722 109 695 79 q 748 203 748 139 l 748 1055 l 862 1055 l 862 203 q 804 40 862 93 q 645 -14 747 -14 m 315 642 q 297 688 315 671 q 250 705 279 705 q 203 688 222 705 q 184 642 184 671 q 203 596 184 612 q 250 579 222 579 q 297 596 279 579 q 315 642 315 612 z "},"ພ":{"ha":973,"x_min":51,"x_max":862,"o":"m 646 -14 q 554 6 594 -14 q 487 65 515 26 q 421 8 460 29 q 328 -14 382 -14 q 225 0 269 -14 q 144 50 182 14 q 93 137 106 86 q 79 240 79 187 q 108 368 79 315 q 168 449 137 421 q 214 492 199 476 q 233 524 229 509 q 183 514 214 514 q 85 547 119 514 q 51 642 51 581 q 86 737 51 703 q 189 771 121 771 q 309 726 271 771 q 347 616 347 681 q 327 529 347 574 q 271 437 307 484 q 216 341 235 390 q 197 243 197 293 q 207 170 197 203 q 233 117 216 138 q 273 87 250 96 q 328 79 296 79 q 404 111 377 79 q 430 203 430 142 l 430 615 l 544 615 l 543 203 q 570 109 543 138 q 646 79 598 79 q 722 109 695 79 q 748 203 748 139 l 748 764 l 862 764 l 862 203 q 804 40 862 93 q 646 -14 747 -14 m 123 642 q 141 596 123 614 q 190 579 159 579 q 236 596 218 579 q 254 642 254 614 q 236 689 254 672 q 190 707 218 707 q 141 689 159 707 q 123 642 123 672 z "},"ຟ":{"ha":973,"x_min":51,"x_max":862,"o":"m 646 -14 q 554 6 594 -14 q 487 65 515 26 q 421 8 460 29 q 328 -14 382 -14 q 225 0 269 -14 q 144 50 182 14 q 93 137 106 86 q 79 240 79 187 q 108 368 79 315 q 168 449 137 421 q 214 492 199 476 q 233 524 229 509 q 183 514 214 514 q 85 547 119 514 q 51 642 51 581 q 86 737 51 703 q 189 771 121 771 q 309 726 271 771 q 347 616 347 681 q 327 529 347 574 q 271 437 307 484 q 216 343 235 390 q 197 243 197 294 q 207 170 197 203 q 233 117 216 138 q 273 87 250 96 q 328 79 296 79 q 404 111 377 79 q 430 203 430 142 l 430 615 l 544 615 l 543 203 q 570 109 543 138 q 646 79 598 79 q 722 109 695 79 q 748 203 748 139 l 748 1055 l 862 1055 l 862 203 q 804 40 862 93 q 646 -14 747 -14 m 123 642 q 141 596 123 614 q 190 579 159 579 q 236 596 218 579 q 254 642 254 614 q 236 689 254 672 q 190 707 218 707 q 141 689 159 707 q 123 642 123 672 z "},"ມ":{"ha":904,"x_min":51,"x_max":793,"o":"m 534 -14 q 415 15 467 -14 q 324 87 362 43 q 283 15 317 41 q 189 -12 248 -12 q 86 22 121 -12 q 51 117 51 56 q 85 212 51 178 q 183 245 119 245 q 200 245 191 245 q 214 243 209 244 l 214 764 l 328 764 l 328 220 q 404 117 352 157 q 529 79 454 79 l 534 79 q 645 118 610 79 q 679 227 679 157 l 679 764 l 793 764 l 793 227 q 724 51 793 114 q 534 -14 655 -12 m 190 53 q 236 70 218 53 q 254 117 254 86 q 236 162 254 144 q 190 179 218 179 q 141 162 159 179 q 123 117 123 144 q 141 70 123 86 q 190 53 159 53 z "},"ຢ":{"ha":911,"x_min":85,"x_max":800,"o":"m 85 191 q 96 250 85 224 q 125 297 106 277 q 170 333 144 318 q 231 359 197 349 q 170 390 197 372 q 125 431 144 407 q 96 484 106 454 q 85 550 85 513 q 143 714 85 657 q 288 771 201 771 q 391 737 355 771 q 427 642 427 703 q 392 547 427 581 q 294 514 357 514 q 240 523 262 514 q 201 546 218 532 q 198 521 198 534 q 213 473 198 494 q 249 436 227 452 q 311 413 271 421 q 395 406 345 406 l 412 406 l 412 315 q 314 307 348 315 q 254 282 280 298 q 215 244 229 265 q 202 193 202 222 q 215 146 202 167 q 256 108 229 125 q 328 85 283 92 q 430 79 373 79 q 543 89 492 79 q 625 121 594 98 q 670 174 655 143 q 686 252 686 205 l 686 1055 l 800 1055 l 800 252 q 777 139 800 186 q 710 54 755 93 q 587 1 665 16 q 430 -14 509 -14 q 286 -2 352 -14 q 177 35 220 9 q 110 99 134 60 q 85 191 85 138 m 353 642 q 335 689 353 672 q 288 707 317 707 q 241 689 259 707 q 223 642 223 672 q 241 596 223 614 q 288 579 259 579 q 335 596 317 579 q 353 642 353 614 z "},"ຣ":{"ha":880,"x_min":73,"x_max":783,"o":"m 279 207 q 261 253 279 236 q 214 271 243 271 q 167 253 186 271 q 149 207 149 236 q 167 161 149 178 q 214 144 186 144 q 261 161 243 144 q 279 207 279 178 m 436 -14 q 309 -1 369 -12 q 193 37 248 11 q 107 106 138 62 q 76 207 76 150 l 76 211 q 111 302 76 268 q 215 336 147 336 q 316 302 280 336 q 353 207 353 268 q 339 148 353 174 q 297 102 325 122 q 359 85 325 90 q 433 79 394 79 q 540 93 496 79 q 612 128 585 106 q 652 180 639 150 q 665 249 665 211 q 633 320 665 296 q 537 364 601 345 q 369 398 473 383 q 199 441 265 414 q 103 507 133 468 q 73 602 73 546 q 98 688 73 656 q 164 740 123 721 q 258 769 205 760 q 382 778 311 778 q 487 771 434 778 q 587 748 540 764 q 676 712 634 733 q 758 663 719 690 l 697 581 q 625 626 662 607 q 546 659 587 646 q 464 679 505 672 q 382 686 423 686 q 305 681 340 686 q 246 666 271 675 q 207 641 222 657 q 191 602 191 625 q 218 548 191 568 q 305 513 245 528 q 472 482 365 498 q 647 435 578 465 q 750 362 716 406 q 783 243 783 319 q 764 142 783 191 q 700 60 744 94 q 592 6 655 25 q 436 -14 529 -14 z "},"ລ":{"ha":911,"x_min":62,"x_max":800,"o":"m 271 52 q 318 69 300 52 q 336 115 336 86 q 318 161 336 144 q 271 178 300 178 q 224 161 243 178 q 205 115 205 144 q 224 69 205 86 q 271 52 243 52 m 633 -14 q 557 8 590 -14 q 506 67 525 31 q 471 161 486 103 q 432 256 456 220 q 374 309 408 293 q 289 322 343 322 l 279 322 q 205 300 231 322 q 180 236 180 278 q 183 211 180 220 q 223 235 200 227 q 277 244 245 244 q 375 210 340 244 q 410 115 410 176 q 374 20 410 54 q 272 -14 339 -14 q 123 47 178 -14 q 69 208 69 109 q 125 360 69 306 q 282 415 180 415 q 409 396 350 415 q 501 339 468 378 q 553 243 534 301 q 581 146 571 186 q 604 93 590 107 q 631 79 615 79 l 633 79 q 674 98 663 79 q 686 161 686 117 l 686 460 q 622 627 686 568 q 437 686 558 686 q 251 646 322 685 q 159 511 180 607 l 62 530 q 188 724 87 669 q 436 778 288 778 q 704 692 608 778 q 800 460 800 607 l 800 157 q 755 28 800 71 q 633 -14 711 -14 z "},"ວ":{"ha":880,"x_min":41,"x_max":769,"o":"m 769 243 q 684 52 769 118 q 446 -14 601 -14 l 436 -14 q 309 -1 369 -12 q 193 37 248 11 q 107 106 138 62 q 76 207 76 150 l 76 211 q 111 302 76 268 q 215 336 147 336 q 316 302 280 336 q 353 207 353 268 q 339 148 353 174 q 297 102 325 122 q 359 85 325 90 q 433 79 394 79 q 598 121 541 79 q 655 249 655 163 l 655 488 q 605 633 655 581 q 435 686 554 686 q 226 640 294 686 q 138 511 158 593 l 41 530 q 163 715 62 653 q 435 778 264 778 q 684 705 598 778 q 769 496 769 632 l 769 243 m 279 207 q 261 253 279 236 q 214 271 243 271 q 167 253 186 271 q 149 207 149 236 q 167 161 149 178 q 214 144 186 144 q 261 161 243 144 q 279 207 279 178 z "},"ສ":{"ha":911,"x_min":69,"x_max":806,"o":"m 271 52 q 318 69 300 52 q 336 115 336 86 q 318 161 336 144 q 271 178 300 178 q 224 161 243 178 q 205 115 205 144 q 224 69 205 86 q 271 52 243 52 m 376 572 q 509 590 455 572 q 597 633 562 607 q 519 674 559 660 q 421 686 481 686 l 410 686 q 265 670 319 685 q 211 627 211 656 q 254 586 212 599 q 376 572 296 572 m 633 -14 q 557 8 590 -14 q 505 67 525 31 q 470 161 486 103 q 432 256 455 220 q 374 309 408 293 q 288 322 342 322 l 279 322 q 205 300 231 322 q 180 236 180 278 q 183 211 180 220 q 223 235 200 227 q 277 244 245 244 q 375 210 340 244 q 410 115 410 176 q 374 20 410 54 q 272 -14 338 -14 q 123 47 178 -14 q 69 208 69 109 q 125 360 69 306 q 281 415 180 415 q 409 396 350 415 q 501 339 468 378 q 552 243 534 301 q 580 146 570 186 q 604 93 590 107 q 630 79 615 79 l 633 79 q 674 98 662 79 q 686 161 686 117 l 686 460 q 682 515 686 490 q 662 559 677 539 q 531 499 608 519 q 376 479 454 479 q 158 520 224 479 q 93 625 93 560 l 93 628 q 174 741 93 701 q 399 778 251 778 l 410 778 q 556 759 494 778 q 662 711 618 741 q 681 757 673 733 q 693 806 688 781 l 806 806 q 781 718 797 760 q 741 642 765 676 q 786 557 772 603 q 800 460 800 511 l 800 157 q 755 28 800 71 q 633 -14 711 -14 z "},"ຫ":{"ha":1074,"x_min":51,"x_max":962,"o":"m 190 579 q 236 596 218 579 q 254 642 254 614 q 236 689 254 672 q 190 707 218 707 q 141 689 159 707 q 123 642 123 672 q 141 596 123 614 q 190 579 159 579 m 522 579 q 533 581 527 579 q 545 586 540 583 l 545 676 q 522 707 545 707 q 474 689 491 707 q 456 642 456 672 q 474 596 456 614 q 522 579 491 579 m 962 0 l 848 0 l 848 525 q 835 637 848 596 q 790 679 822 679 q 720 651 755 679 q 659 590 684 624 l 659 237 q 586 52 659 117 q 368 -14 513 -14 q 156 53 234 -12 q 79 240 79 118 q 108 368 79 315 q 168 449 137 421 q 214 492 199 476 q 233 524 229 509 q 183 514 214 514 q 85 547 119 514 q 51 642 51 581 q 86 737 51 703 q 189 771 121 771 q 309 726 271 771 q 347 616 347 681 q 327 529 347 574 q 271 437 307 484 q 216 341 235 390 q 197 243 197 293 q 242 122 197 165 q 369 79 288 79 l 375 79 q 508 122 471 79 q 545 237 545 165 l 545 515 q 534 514 540 514 l 522 514 q 421 547 459 514 q 382 642 382 581 q 419 737 382 703 q 520 771 455 771 q 608 748 577 771 q 651 688 640 725 q 715 744 677 717 q 804 771 752 771 q 923 709 884 771 q 962 525 962 647 l 962 0 z "},"ອ":{"ha":880,"x_min":55,"x_max":769,"o":"m 401 482 q 554 502 494 482 q 646 559 614 522 q 584 649 630 612 q 427 686 537 686 q 244 657 321 686 q 166 581 166 628 q 236 511 166 541 q 401 482 305 482 m 656 457 q 548 408 610 425 q 401 390 486 390 q 150 444 245 390 q 55 579 55 497 q 153 726 55 673 q 427 778 251 778 q 684 702 600 778 q 769 496 769 627 l 769 243 q 684 52 769 118 q 445 -14 601 -14 l 435 -14 q 309 -1 369 -12 q 193 37 248 11 q 107 106 138 62 q 76 207 76 150 l 76 211 q 111 302 76 268 q 215 336 146 336 q 316 302 280 336 q 352 207 352 268 q 338 148 352 174 q 296 102 324 122 q 359 85 324 90 q 433 79 394 79 q 598 119 541 79 q 655 249 655 163 l 656 457 m 279 207 q 260 253 279 236 q 213 271 242 271 q 167 253 186 271 q 148 207 148 236 q 167 161 148 178 q 213 144 186 144 q 260 161 242 144 q 279 207 279 178 z "},"ຮ":{"ha":880,"x_min":73,"x_max":826,"o":"m 436 -14 q 309 -1 369 -12 q 193 37 248 11 q 107 106 138 62 q 76 207 76 150 l 76 211 q 111 302 76 268 q 215 336 147 336 q 316 302 280 336 q 353 207 353 268 q 339 148 353 174 q 297 102 325 122 q 433 79 354 79 q 540 93 496 79 q 612 128 585 106 q 652 180 639 150 q 665 249 665 211 q 631 319 665 294 q 538 365 598 345 q 368 400 477 385 q 199 445 258 415 q 106 514 140 475 q 73 616 73 553 q 120 728 73 679 q 252 778 166 778 q 369 761 319 778 q 466 719 419 743 q 551 679 512 694 q 619 664 590 664 q 688 696 656 664 q 741 768 720 729 l 826 715 q 741 610 789 648 q 625 571 694 572 q 529 587 573 571 q 425 631 484 603 q 329 672 365 659 q 252 686 293 686 q 209 665 226 686 q 191 616 191 644 q 221 562 191 585 q 313 519 251 539 q 476 485 374 500 q 646 440 578 469 q 748 367 713 411 q 783 243 783 323 q 764 142 783 191 q 700 60 744 94 q 592 6 655 25 q 436 -14 529 -14 m 214 144 q 261 161 243 144 q 279 207 279 178 q 261 253 279 236 q 214 271 243 271 q 167 253 186 271 q 149 207 149 236 q 167 161 149 178 q 214 144 186 144 z "},"ຯ":{"ha":911,"x_min":85,"x_max":854,"o":"m 353 642 q 335 689 353 672 q 288 707 317 707 q 241 689 259 707 q 223 642 223 672 q 241 596 223 614 q 288 579 259 579 q 335 596 317 579 q 353 642 353 614 m 380 -229 l 288 -163 l 682 374 q 723 445 706 406 q 740 530 740 485 q 732 561 740 550 q 713 571 724 571 q 645 540 684 571 q 550 450 606 509 q 435 358 494 392 q 320 325 377 325 q 153 386 220 325 q 85 559 85 447 q 144 710 85 648 q 288 771 202 771 q 391 737 355 771 q 427 642 427 703 q 392 547 427 581 q 294 514 357 514 q 240 522 262 514 q 201 543 218 529 l 201 521 q 229 451 201 486 q 320 416 258 416 q 415 457 368 416 q 508 548 463 498 q 607 630 553 597 q 719 663 661 663 q 818 624 783 663 q 854 525 854 586 q 832 416 854 475 q 774 309 810 357 l 380 -229 z "},"ະ":{"ha":884,"x_min":94,"x_max":794,"o":"m 794 313 q 689 72 794 155 q 400 -11 583 -11 q 284 0 337 -11 q 192 35 232 11 q 123 100 151 60 q 94 196 96 140 q 130 291 94 257 q 233 325 166 325 q 335 291 298 325 q 371 196 371 257 q 357 138 371 164 q 315 92 343 111 q 357 84 336 86 q 397 82 378 82 q 608 138 536 82 q 680 313 680 195 l 794 313 m 298 196 q 280 244 298 227 q 232 261 262 261 q 186 244 204 261 q 168 196 168 227 q 186 151 168 168 q 232 134 204 134 q 280 151 262 134 q 298 196 298 168 m 794 729 q 689 489 794 572 q 400 406 583 406 q 284 417 337 406 q 192 452 232 428 q 123 516 151 476 q 94 612 96 557 q 130 708 94 673 q 233 742 166 742 q 335 708 298 742 q 371 612 371 673 q 357 554 371 581 q 315 509 343 528 q 357 500 336 503 q 397 498 378 498 q 608 555 536 498 q 680 729 680 611 l 794 729 m 298 612 q 280 660 298 643 q 232 677 262 677 q 186 660 204 677 q 168 612 168 643 q 186 567 168 585 q 232 550 204 550 q 280 567 262 550 q 298 612 298 585 z "},"ັ":{"ha":0,"x_min":-783,"x_max":-83,"o":"m -83 1169 q -189 929 -83 1013 q -477 846 -294 846 q -593 857 -541 846 q -686 892 -646 868 q -754 957 -726 917 q -783 1053 -782 997 q -747 1148 -783 1114 q -644 1182 -711 1182 q -543 1148 -579 1182 q -507 1053 -507 1114 q -520 994 -507 1021 q -562 949 -534 968 q -521 941 -542 943 q -481 939 -500 939 q -270 995 -342 939 q -197 1169 -197 1051 l -83 1169 m -579 1053 q -597 1101 -579 1083 q -646 1118 -615 1118 q -691 1101 -673 1118 q -709 1053 -709 1083 q -691 1007 -709 1025 q -646 990 -673 990 q -597 1007 -615 990 q -579 1053 -579 1025 z "},"າ":{"ha":703,"x_min":65,"x_max":591,"o":"m 268 557 q 250 603 268 586 q 203 619 232 619 q 157 603 175 619 q 139 557 139 586 q 157 510 139 528 q 203 493 175 493 q 250 510 232 493 q 268 557 268 528 m 591 0 l 477 0 l 477 482 q 436 636 477 586 q 322 686 394 686 q 254 675 275 686 q 317 635 293 663 q 342 557 342 607 q 306 463 342 496 q 204 429 269 429 q 101 463 138 429 q 65 553 65 496 l 65 557 q 140 723 65 668 q 319 778 215 778 q 518 704 444 778 q 591 482 591 629 l 591 0 z "},"ຳ":{"ha":703,"x_min":-380,"x_max":592,"o":"m 268 557 q 250 603 268 586 q 203 619 232 619 q 157 603 175 619 q 139 557 139 586 q 157 510 139 528 q 203 493 175 493 q 250 510 232 493 q 268 557 268 528 m 592 0 l 478 0 l 478 482 q 436 636 478 586 q 322 686 395 686 q 254 675 275 686 q 317 635 293 663 q 342 557 342 607 q 306 463 342 496 q 204 429 269 429 q 101 463 138 429 q 65 553 65 496 l 65 557 q 140 723 65 668 q 319 778 216 778 q 518 704 445 778 q 592 482 592 629 l 592 0 m -380 978 q -348 1064 -380 1034 q -256 1095 -315 1095 q -163 1064 -196 1095 q -130 978 -130 1034 q -163 892 -130 924 q -256 861 -196 861 q -348 892 -315 861 q -380 978 -380 924 m -314 978 q -297 937 -314 953 q -254 921 -281 921 q -214 937 -231 921 q -197 978 -197 953 q -214 1020 -197 1004 q -254 1036 -231 1036 q -297 1020 -281 1036 q -314 978 -314 1004 z "},"ິ":{"ha":0,"x_min":-811,"x_max":-115,"o":"m -358 835 l -358 913 q -244 937 -277 913 q -212 1006 -212 961 q -259 1089 -212 1053 q -463 1126 -306 1126 q -653 1097 -591 1126 q -714 1006 -714 1068 q -682 938 -714 962 q -568 913 -650 913 l -568 835 q -749 877 -688 835 q -811 1006 -811 918 q -723 1155 -811 1105 q -463 1204 -635 1204 q -199 1152 -282 1204 q -115 1006 -115 1100 q -174 881 -115 926 q -358 835 -232 835 z "},"ີ":{"ha":0,"x_min":-811,"x_max":-43,"o":"m -43 835 l -358 835 l -358 913 q -247 936 -281 913 q -212 1006 -212 958 q -269 1093 -212 1060 q -463 1126 -325 1126 q -655 1096 -596 1126 q -714 1006 -714 1065 q -679 936 -714 958 q -568 913 -644 913 l -568 835 q -746 874 -680 835 q -811 1006 -811 913 q -727 1153 -811 1101 q -463 1204 -643 1204 q -199 1153 -283 1204 q -115 1006 -115 1101 q -125 956 -115 978 q -154 913 -135 935 l -43 913 l -43 835 z "},"ຶ":{"ha":0,"x_min":-811,"x_max":-115,"o":"m -463 933 q -491 939 -477 933 q -514 954 -504 945 q -529 977 -524 964 q -534 1006 -534 990 q -529 1033 -534 1019 q -514 1056 -524 1046 q -491 1071 -504 1065 q -463 1076 -477 1076 q -435 1071 -448 1076 q -413 1056 -422 1065 q -398 1033 -404 1046 q -392 1006 -392 1019 q -398 977 -392 990 q -413 954 -404 964 q -435 939 -422 945 q -463 933 -448 933 m -358 835 l -358 913 q -247 936 -281 913 q -212 1006 -212 958 q -267 1093 -212 1060 q -463 1126 -322 1126 q -653 1097 -593 1126 q -714 1006 -714 1067 q -679 936 -714 958 q -568 913 -644 913 l -568 835 q -748 876 -685 835 q -811 1006 -811 917 q -728 1152 -811 1100 q -463 1204 -644 1204 q -198 1152 -281 1204 q -115 1006 -115 1100 q -178 878 -115 921 q -358 835 -241 835 z "},"ື":{"ha":0,"x_min":-811,"x_max":-43,"o":"m -43 835 l -358 835 l -358 913 q -249 934 -285 913 q -212 1006 -212 956 q -269 1095 -212 1063 q -463 1126 -325 1126 q -656 1095 -599 1126 q -714 1006 -714 1064 q -678 934 -714 956 q -568 913 -642 913 l -568 835 q -746 874 -680 835 q -811 1006 -811 913 q -721 1156 -811 1108 q -463 1204 -631 1204 q -203 1155 -290 1204 q -115 1006 -115 1105 q -125 956 -115 978 q -154 913 -135 935 l -43 913 l -43 835 m -463 933 q -491 939 -477 933 q -514 954 -504 945 q -529 977 -524 964 q -534 1006 -534 990 q -529 1033 -534 1019 q -514 1056 -524 1046 q -491 1071 -504 1065 q -463 1076 -477 1076 q -435 1071 -448 1076 q -413 1056 -422 1065 q -398 1033 -404 1046 q -392 1006 -392 1019 q -398 977 -392 990 q -413 954 -404 964 q -435 939 -422 945 q -463 933 -448 933 z "},"ຸ":{"ha":0,"x_min":-524,"x_max":-233,"o":"m -406 -215 q -365 -201 -380 -215 q -350 -163 -350 -187 q -365 -123 -350 -138 q -406 -109 -380 -109 q -446 -123 -431 -109 q -461 -163 -461 -138 q -446 -201 -461 -187 q -406 -215 -431 -215 m -396 -425 l -422 -347 q -353 -314 -376 -336 q -330 -260 -330 -292 q -332 -248 -330 -257 q -365 -265 -346 -258 q -411 -272 -383 -272 q -494 -243 -464 -272 q -524 -163 -524 -215 q -493 -82 -524 -111 q -406 -53 -463 -53 q -282 -97 -330 -53 q -233 -228 -233 -140 q -270 -348 -233 -296 q -396 -425 -307 -400 z "},"ູ":{"ha":0,"x_min":-631,"x_max":-210,"o":"m -394 -412 q -530 -388 -481 -412 q -578 -310 -578 -364 q -567 -284 -578 -298 q -538 -257 -556 -270 q -547 -258 -544 -258 q -604 -227 -577 -253 q -631 -149 -631 -201 q -601 -68 -631 -98 q -515 -39 -570 -39 q -420 -73 -450 -39 q -390 -165 -390 -106 q -404 -211 -390 -191 q -438 -247 -418 -231 q -470 -278 -458 -263 q -483 -304 -483 -292 q -463 -325 -483 -317 q -394 -332 -442 -332 q -329 -324 -349 -332 q -308 -300 -308 -315 l -308 -57 l -210 -57 l -210 -300 q -264 -389 -210 -366 q -394 -412 -319 -412 m -513 -201 q -474 -188 -490 -201 q -459 -149 -459 -174 q -474 -110 -459 -124 q -513 -95 -490 -95 q -554 -110 -538 -95 q -569 -149 -569 -124 q -554 -188 -569 -174 q -513 -201 -538 -201 z "},"ົ":{"ha":0,"x_min":-783,"x_max":-83,"o":"m -83 865 l -197 865 q -270 1040 -197 983 q -481 1096 -342 1096 q -521 1094 -500 1096 q -562 1086 -542 1092 q -520 1040 -534 1067 q -507 982 -507 1014 q -543 887 -507 921 q -644 852 -579 852 q -747 887 -711 852 q -783 982 -783 921 q -754 1078 -782 1038 q -686 1142 -726 1118 q -593 1177 -646 1166 q -477 1187 -541 1187 q -189 1105 -294 1187 q -83 865 -83 1022 m -646 917 q -597 934 -615 917 q -579 982 -579 951 q -597 1026 -579 1010 q -646 1043 -615 1043 q -691 1026 -673 1043 q -709 982 -709 1010 q -691 934 -709 951 q -646 917 -673 917 z "},"ຼ":{"ha":0,"x_min":-858,"x_max":-12,"o":"m -226 -339 q -343 -314 -294 -339 q -436 -247 -393 -289 q -518 -178 -479 -205 q -602 -151 -558 -151 q -630 -155 -616 -151 q -591 -198 -602 -175 q -580 -253 -580 -221 q -616 -348 -580 -314 q -719 -382 -652 -382 q -822 -348 -786 -382 q -858 -253 -858 -314 q -841 -168 -858 -204 q -790 -106 -823 -131 q -713 -71 -756 -82 q -619 -60 -671 -60 q -498 -82 -557 -60 q -393 -153 -439 -104 q -308 -223 -348 -201 q -226 -245 -268 -245 q -154 -219 -186 -245 q -100 -147 -122 -193 l -12 -195 q -107 -301 -51 -264 q -226 -339 -163 -339 m -720 -318 q -672 -301 -690 -318 q -654 -253 -654 -283 q -672 -208 -654 -225 q -720 -191 -690 -191 q -766 -208 -748 -191 q -784 -253 -784 -225 q -766 -301 -784 -283 q -720 -318 -748 -318 z "},"ຽ":{"ha":819,"x_min":41,"x_max":744,"o":"m 382 -325 q 265 -313 315 -325 q 159 -276 215 -301 q 73 -206 104 -250 q 41 -106 43 -161 q 77 -11 41 -45 q 180 24 113 24 q 282 -11 247 24 q 318 -106 318 -45 q 304 -164 318 -138 q 262 -210 290 -191 q 378 -233 319 -233 q 534 -176 481 -233 q 587 5 587 -118 l 587 221 q 537 323 587 271 q 363 425 487 375 q 184 527 240 475 q 127 636 127 579 q 164 739 127 700 q 280 778 201 778 q 359 759 323 778 q 428 704 394 741 q 487 652 463 668 q 538 636 512 636 q 607 669 574 636 q 661 742 639 701 l 744 689 q 660 583 708 621 q 544 545 612 545 q 475 558 511 545 q 398 610 439 572 q 331 667 357 648 q 293 686 305 686 q 256 676 267 686 q 245 636 245 665 q 287 577 245 611 q 461 488 329 543 q 647 365 593 433 q 701 216 701 297 l 701 -1 q 617 -245 701 -164 q 387 -325 534 -325 l 382 -325 m 179 -168 q 228 -151 210 -168 q 245 -106 245 -134 q 228 -58 245 -75 q 179 -40 210 -40 q 133 -58 151 -40 q 115 -106 115 -75 q 133 -151 115 -134 q 179 -168 151 -168 z "},"ເ":{"ha":443,"x_min":125,"x_max":401,"o":"m 262 53 q 310 70 292 53 q 328 117 328 86 q 310 162 328 144 q 262 179 292 179 q 217 162 235 179 q 199 117 199 144 q 217 70 199 86 q 262 53 235 53 m 264 -12 q 161 22 197 -12 q 125 117 125 56 l 125 624 q 171 740 125 703 q 292 778 216 778 q 333 773 312 778 q 375 757 354 768 l 336 672 q 315 683 326 679 q 292 686 304 686 q 252 671 265 686 q 239 625 239 656 l 239 243 q 251 245 241 244 q 269 245 261 245 q 367 212 332 245 q 401 117 401 178 q 365 22 401 56 q 264 -12 329 -12 z "},"ແ":{"ha":817,"x_min":125,"x_max":774,"o":"m 636 53 q 683 70 665 53 q 701 117 701 86 q 683 162 701 144 q 636 179 665 179 q 590 162 608 179 q 572 117 572 144 q 590 70 572 86 q 636 53 608 53 m 637 -12 q 534 22 570 -12 q 498 117 498 56 l 498 624 q 544 740 498 703 q 665 778 590 778 q 707 773 686 778 q 749 757 728 768 l 709 672 q 689 683 700 679 q 665 686 677 686 q 626 671 639 686 q 612 625 612 656 l 612 243 q 625 245 615 244 q 643 245 635 245 q 740 212 705 245 q 774 117 774 178 q 739 22 774 56 q 637 -12 703 -12 m 262 53 q 310 70 292 53 q 328 117 328 86 q 310 162 328 144 q 262 179 292 179 q 217 162 235 179 q 199 117 199 144 q 217 70 199 86 q 262 53 235 53 m 264 -12 q 161 22 197 -12 q 125 117 125 56 l 125 624 q 171 740 125 703 q 292 778 216 778 q 333 773 312 778 q 375 757 354 768 l 336 672 q 315 683 326 679 q 292 686 304 686 q 252 671 265 686 q 239 625 239 656 l 239 243 q 251 245 241 244 q 269 245 261 245 q 367 212 332 245 q 401 117 401 178 q 365 22 401 56 q 264 -12 329 -12 z "},"ໂ":{"ha":577,"x_min":-31,"x_max":539,"o":"m 376 53 q 424 70 406 53 q 441 117 441 86 q 424 162 441 144 q 376 179 406 179 q 329 162 347 179 q 311 117 311 144 q 329 70 311 86 q 376 53 347 53 m 376 -12 q 274 22 310 -12 q 237 117 237 56 l 237 542 q 250 620 237 587 q 285 673 262 653 q 182 777 241 714 q 72 920 123 840 q -5 1052 20 999 q -31 1139 -31 1104 q 4 1222 -31 1200 q 90 1244 39 1244 q 199 1199 146 1244 q 315 1066 253 1153 q 433 915 376 979 q 539 822 490 851 l 463 742 q 353 845 410 783 q 229 1001 296 907 q 134 1124 163 1095 q 94 1154 104 1154 q 87 1151 90 1154 q 83 1143 83 1147 q 106 1075 83 1121 q 182 956 130 1029 q 290 819 235 882 q 406 700 346 755 q 366 626 380 665 q 351 543 351 586 l 351 243 q 365 245 355 244 q 382 245 375 245 q 480 212 446 245 q 515 117 515 178 q 479 22 515 56 q 376 -12 443 -12 z "},"ໃ":{"ha":658,"x_min":15,"x_max":633,"o":"m 456 53 q 505 70 487 53 q 522 117 522 86 q 505 162 522 144 q 456 179 487 179 q 411 162 429 179 q 393 117 393 144 q 411 70 393 86 q 456 53 429 53 m 458 -12 q 355 22 391 -12 q 319 117 319 56 l 319 624 q 346 750 319 694 q 419 847 373 806 q 490 926 465 888 q 515 1011 515 965 q 461 1113 515 1079 q 315 1147 408 1147 q 184 1118 239 1147 q 129 1021 129 1088 q 169 927 129 957 q 287 897 210 897 l 287 806 q 85 866 155 806 q 15 1018 15 926 q 105 1184 15 1129 q 317 1239 195 1239 q 554 1172 476 1239 q 633 1011 633 1104 q 607 917 633 964 q 532 821 582 871 q 457 731 481 771 q 433 625 433 692 l 433 243 q 446 245 436 244 q 464 245 455 245 q 561 212 526 245 q 595 117 595 178 q 559 22 595 56 q 458 -12 524 -12 z "},"ໄ":{"ha":658,"x_min":45,"x_max":629,"o":"m 458 -12 q 355 22 391 -12 q 319 117 319 56 l 319 571 q 332 644 319 612 q 363 696 345 676 q 404 731 382 717 q 461 766 426 746 q 516 801 496 786 q 536 822 536 815 q 533 832 536 827 q 522 838 530 838 l 520 838 q 452 810 503 838 q 358 781 399 781 q 311 797 333 781 q 277 854 290 812 q 191 1026 247 945 q 45 1178 134 1108 l 125 1249 q 275 1088 214 1174 q 376 904 337 1002 q 412 873 387 873 q 442 882 426 873 q 470 895 458 890 q 500 905 483 900 q 536 911 517 911 q 577 905 561 911 q 605 889 594 900 q 623 864 616 878 q 629 836 629 851 q 617 791 629 812 q 582 749 605 770 q 532 713 559 729 q 483 678 505 697 q 447 631 460 659 q 433 571 433 603 l 433 243 q 445 245 435 244 q 463 245 455 245 q 561 212 526 245 q 595 117 595 178 q 559 22 595 56 q 458 -12 524 -12 m 456 53 q 504 70 487 53 q 522 117 522 86 q 504 162 522 144 q 456 179 487 179 q 411 162 429 179 q 393 117 393 144 q 411 70 393 86 q 456 53 429 53 z "},"ໆ":{"ha":904,"x_min":111,"x_max":793,"o":"m 793 -41 q 707 -251 793 -178 q 458 -323 622 -323 q 245 -280 337 -323 q 133 -117 153 -236 l 230 -97 q 307 -202 247 -172 q 458 -232 368 -232 q 629 -179 578 -232 q 679 -33 679 -126 l 679 521 q 675 592 679 561 q 665 643 671 623 q 647 675 659 664 q 619 686 635 686 q 581 671 595 686 q 558 635 566 656 q 543 594 549 615 q 526 552 537 572 q 497 517 515 532 q 452 503 480 503 q 406 517 423 503 q 377 552 389 532 q 360 594 366 572 q 345 635 353 615 q 322 671 337 656 q 284 686 308 686 q 257 675 269 686 q 238 643 245 664 q 228 592 231 623 q 224 521 224 561 l 224 488 q 238 490 229 489 q 255 490 247 490 q 352 456 317 490 q 387 361 387 422 q 352 266 387 300 q 250 232 316 232 q 146 266 182 232 q 111 361 111 300 l 111 521 q 126 653 111 603 q 167 730 142 704 q 221 767 191 757 q 286 778 251 778 q 394 729 355 778 q 452 596 434 681 q 508 729 469 681 q 618 778 548 778 q 682 767 652 778 q 736 730 712 757 q 777 653 760 704 q 793 521 793 603 l 793 -41 m 315 361 q 297 406 315 389 q 248 424 279 424 q 202 406 220 424 q 184 361 184 389 q 202 313 184 330 q 248 296 220 296 q 297 313 279 296 q 315 361 315 330 z "},"່":{"ha":0,"x_min":-497,"x_max":-400,"o":"m -497 1439 l -400 1439 l -400 1197 l -497 1197 l -497 1439 z "},"້":{"ha":0,"x_min":-708,"x_max":-144,"o":"m -655 1418 q -643 1386 -655 1398 q -608 1373 -630 1373 q -575 1386 -587 1373 q -562 1418 -562 1398 q -575 1453 -562 1440 q -608 1466 -587 1466 q -643 1453 -630 1466 q -655 1418 -655 1440 m -591 1328 q -601 1327 -594 1328 q -614 1326 -608 1326 q -683 1351 -658 1326 q -708 1418 -708 1375 q -682 1487 -708 1463 q -610 1511 -656 1511 q -535 1487 -561 1511 q -509 1418 -509 1463 l -509 1369 q -564 1264 -509 1296 q -313 1322 -386 1264 q -240 1491 -240 1381 l -144 1491 q -236 1276 -144 1367 q -561 1186 -328 1186 l -688 1186 l -688 1264 q -591 1328 -591 1296 z "},"໊":{"ha":0,"x_min":-774,"x_max":-33,"o":"m -619 1197 q -727 1242 -680 1197 q -774 1357 -774 1287 q -731 1473 -774 1430 q -610 1516 -687 1516 q -535 1476 -583 1516 q -462 1436 -487 1436 q -399 1477 -439 1438 q -317 1516 -359 1516 q -224 1481 -256 1516 q -193 1393 -193 1446 q -217 1337 -193 1362 q -284 1289 -241 1312 q -165 1313 -199 1289 q -129 1383 -132 1337 l -33 1383 q -89 1261 -34 1311 q -281 1211 -144 1211 l -395 1211 l -395 1289 q -307 1331 -340 1304 q -275 1392 -275 1358 q -286 1428 -275 1417 q -317 1439 -296 1439 q -370 1399 -332 1439 q -462 1358 -409 1358 q -560 1399 -522 1358 q -610 1439 -598 1439 q -662 1418 -646 1439 q -679 1357 -679 1397 q -661 1294 -679 1315 q -612 1268 -644 1274 q -616 1287 -616 1280 q -559 1340 -614 1340 l -556 1340 q -496 1284 -496 1340 q -527 1223 -496 1250 q -619 1197 -558 1197 z "},"໋":{"ha":0,"x_min":-627,"x_max":-264,"o":"m -627 1318 l -627 1415 l -494 1415 l -494 1547 l -398 1547 l -398 1415 l -264 1415 l -264 1318 l -398 1318 l -398 1186 l -494 1186 l -494 1318 l -627 1318 z "},"໌":{"ha":0,"x_min":-793,"x_max":-75,"o":"m -256 1289 q -356 1310 -315 1289 q -435 1365 -398 1331 q -505 1423 -472 1400 q -578 1447 -538 1447 q -600 1444 -589 1447 q -567 1408 -576 1426 q -558 1360 -558 1389 q -589 1280 -558 1308 q -675 1251 -619 1251 q -763 1280 -732 1251 q -793 1356 -793 1308 l -793 1360 q -778 1433 -793 1401 q -736 1486 -764 1464 q -671 1516 -708 1507 q -591 1525 -634 1525 q -487 1506 -537 1525 q -399 1446 -437 1487 q -326 1385 -361 1404 q -256 1367 -292 1367 q -195 1390 -222 1367 q -149 1450 -169 1413 l -75 1411 q -155 1320 -106 1352 q -256 1289 -204 1289 m -676 1305 q -636 1320 -651 1305 q -621 1360 -621 1335 q -636 1399 -621 1385 q -676 1414 -651 1414 q -715 1399 -700 1414 q -730 1360 -730 1385 q -715 1320 -730 1335 q -676 1305 -700 1305 z "},"ໍ":{"ha":0,"x_min":-570,"x_max":-320,"o":"m -570 978 q -538 1064 -570 1034 q -446 1095 -505 1095 q -353 1064 -386 1095 q -320 978 -320 1034 q -353 892 -320 924 q -446 861 -386 861 q -538 892 -505 861 q -570 978 -570 924 m -504 978 q -487 937 -504 953 q -444 921 -471 921 q -404 937 -420 921 q -387 978 -387 953 q -404 1020 -387 1004 q -444 1036 -420 1036 q -487 1020 -471 1036 q -504 978 -504 1004 z "},"໐":{"ha":922,"x_min":92,"x_max":831,"o":"m 461 90 l 465 90 q 641 158 564 90 q 720 370 720 227 q 641 581 720 513 q 465 648 564 648 l 461 648 q 280 581 358 648 q 203 370 203 513 q 280 158 203 227 q 461 90 358 90 m 461 0 q 198 95 305 0 q 92 370 92 191 q 198 645 92 550 q 461 739 305 739 q 724 645 616 739 q 831 370 831 550 q 724 95 831 191 q 461 0 616 0 z "},"໑":{"ha":922,"x_min":80,"x_max":837,"o":"m 444 336 q 491 353 472 336 q 509 399 509 370 q 491 445 509 428 q 444 463 472 463 q 397 445 415 463 q 378 399 378 428 q 397 353 378 370 q 444 336 415 336 m 317 207 q 151 272 222 207 q 80 450 80 338 q 182 696 80 615 q 430 778 284 778 q 726 683 614 777 q 837 411 837 590 l 837 407 q 735 111 837 232 q 454 -83 634 -9 l 404 0 q 645 162 566 60 q 724 407 724 264 q 645 617 724 547 q 430 686 566 686 q 255 627 317 685 q 191 453 193 570 q 231 328 191 361 q 317 296 271 296 q 357 302 345 296 q 317 344 329 322 q 305 399 305 366 q 341 493 305 460 q 443 526 377 526 q 547 492 511 526 q 581 403 581 460 l 581 399 q 511 256 581 306 q 317 207 441 207 z "},"໒":{"ha":880,"x_min":80,"x_max":798,"o":"m 650 144 q 696 161 677 144 q 715 207 715 178 q 696 253 715 236 q 650 271 677 271 q 602 253 621 271 q 584 207 584 236 q 602 161 584 178 q 650 144 621 144 m 448 -14 q 183 67 287 -14 q 80 297 80 149 q 167 519 80 429 q 398 674 254 608 q 613 821 543 741 q 684 987 684 901 l 798 987 q 725 779 798 872 q 498 615 652 685 q 269 467 344 546 q 194 300 194 387 q 262 138 194 197 q 451 77 330 78 l 465 77 q 519 81 495 77 q 581 100 549 87 q 531 142 551 114 q 511 207 511 171 q 547 302 511 268 q 648 336 583 336 q 752 302 716 336 q 787 211 787 268 l 787 207 q 763 113 787 151 q 700 43 740 74 q 591 -1 661 12 q 448 -14 522 -14 z "},"໓":{"ha":922,"x_min":51,"x_max":810,"o":"m 190 53 q 236 70 218 53 q 254 117 254 86 q 236 162 254 144 q 190 179 218 179 q 141 162 159 179 q 123 117 123 144 q 141 70 123 86 q 190 53 159 53 m 548 -14 q 422 15 481 -14 q 324 87 362 43 q 283 14 317 40 q 189 -12 248 -12 q 86 22 121 -12 q 51 117 51 56 q 85 212 51 178 q 183 245 119 245 q 203 245 191 245 q 218 243 215 244 l 218 652 l 328 652 l 328 220 q 411 116 352 157 q 543 77 468 77 l 548 77 q 663 117 625 77 q 701 227 701 157 l 701 564 q 666 657 701 614 q 474 755 631 700 q 270 865 317 811 q 223 981 223 918 q 259 1082 223 1043 q 376 1121 295 1121 q 453 1105 412 1121 q 559 1034 495 1089 q 659 961 623 979 q 716 942 695 942 l 722 848 q 649 865 694 848 q 564 915 605 882 q 465 990 523 949 q 389 1032 408 1032 q 350 1020 362 1032 q 337 981 337 1008 q 370 918 337 953 q 557 829 404 884 q 761 708 711 774 q 810 559 810 643 l 810 227 q 740 51 810 114 q 548 -14 669 -12 z "},"໔":{"ha":922,"x_min":87,"x_max":828,"o":"m 711 -14 q 644 8 673 -14 q 596 77 615 29 q 478 11 539 36 q 353 -14 416 -14 q 154 70 220 -14 q 87 318 87 153 q 166 529 87 441 q 411 685 245 616 q 631 828 576 753 q 685 987 685 903 l 799 987 l 799 983 q 723 775 799 864 q 483 616 646 685 q 260 477 319 547 q 201 319 201 407 q 241 133 201 187 q 353 79 281 79 q 465 101 410 79 q 571 154 521 122 q 555 260 559 203 q 551 383 551 318 q 589 476 551 440 q 690 513 627 513 q 792 478 755 513 q 828 383 828 444 q 793 288 828 321 q 696 254 758 254 q 676 255 688 254 q 661 257 664 256 q 662 222 661 240 q 664 184 663 204 q 687 189 675 187 q 710 191 699 191 q 793 164 765 191 q 821 92 821 138 q 792 15 821 43 q 711 -14 764 -12 m 710 52 q 740 61 730 52 q 749 87 749 71 q 740 114 749 104 q 710 123 730 123 q 692 121 701 123 q 671 114 682 118 q 686 68 676 85 q 710 52 696 52 m 689 321 q 737 337 720 321 q 754 383 754 354 q 737 430 754 412 q 689 447 720 447 q 643 430 661 447 q 625 383 625 412 q 643 337 625 354 q 689 321 661 321 z "},"໕":{"ha":922,"x_min":87,"x_max":828,"o":"m 711 -14 q 644 8 673 -14 q 596 77 615 29 q 478 11 539 36 q 353 -14 416 -14 q 154 70 220 -14 q 87 318 87 153 q 104 423 87 375 q 157 516 121 471 q 250 600 193 561 q 382 672 307 639 q 327 710 349 684 q 306 783 306 737 q 338 869 306 839 q 429 900 370 900 q 522 869 490 900 q 554 783 554 839 l 554 770 q 596 797 575 782 q 637 836 616 811 q 670 900 657 860 q 685 987 684 940 l 799 987 q 781 871 799 925 q 721 773 762 818 q 627 701 680 729 q 504 665 574 672 q 397 586 471 628 q 280 499 323 543 q 219 413 237 454 q 201 319 201 371 q 242 131 203 182 q 353 79 281 79 q 465 101 410 79 q 571 154 521 122 q 555 260 559 203 q 551 383 551 318 q 589 476 551 440 q 690 513 627 513 q 792 478 755 513 q 828 383 828 444 q 793 288 828 321 q 696 254 758 254 q 676 255 688 254 q 661 257 664 256 q 662 222 661 240 q 664 184 663 204 q 687 189 675 187 q 710 191 699 191 q 793 164 765 191 q 821 92 821 138 q 792 15 821 43 q 711 -14 764 -12 m 710 52 q 740 61 730 52 q 749 87 749 71 q 740 114 749 104 q 710 123 730 123 q 692 121 701 123 q 671 114 682 118 q 686 68 676 85 q 710 52 696 52 m 689 321 q 737 337 720 321 q 754 383 754 354 q 737 430 754 412 q 689 447 720 447 q 643 430 661 447 q 625 383 625 412 q 643 337 625 354 q 689 321 661 321 m 431 726 q 472 742 456 726 q 489 783 489 758 q 472 826 489 810 q 431 842 456 842 q 388 826 404 842 q 372 783 372 810 q 388 742 372 758 q 431 726 404 726 z "},"໖":{"ha":922,"x_min":111,"x_max":810,"o":"m 810 559 l 810 203 q 761 40 810 93 q 613 -14 711 -14 q 530 5 569 -14 q 460 65 491 24 q 397 8 434 29 q 308 -14 361 -14 q 163 37 216 -14 q 111 203 111 87 l 112 595 q 147 690 112 656 q 251 724 182 724 q 352 690 316 724 q 389 595 389 656 q 354 498 389 532 q 256 465 319 465 q 236 466 248 465 q 220 468 224 467 l 220 203 q 244 102 220 127 q 304 77 266 77 l 308 77 q 377 101 349 77 q 405 203 405 125 l 405 311 l 516 311 l 515 203 q 540 104 515 132 q 609 77 564 77 l 613 77 q 678 104 655 77 q 701 203 701 132 l 701 564 q 666 657 701 614 q 474 755 631 700 q 270 865 317 811 q 223 981 223 918 q 259 1082 223 1043 q 376 1121 295 1121 q 453 1105 412 1121 q 559 1034 495 1089 q 659 961 623 979 q 716 942 695 942 l 722 848 q 649 865 694 848 q 564 915 605 882 q 465 990 523 949 q 389 1032 408 1032 q 350 1020 362 1032 q 337 981 337 1008 q 370 918 337 953 q 557 829 404 884 q 761 708 711 774 q 810 559 810 643 m 315 595 q 297 641 315 624 q 250 659 279 659 q 203 641 222 659 q 184 595 184 624 q 203 549 184 566 q 250 532 222 532 q 297 549 279 532 q 315 595 315 566 z "},"໗":{"ha":922,"x_min":51,"x_max":810,"o":"m 214 585 l 214 676 q 208 699 214 690 q 190 707 202 707 q 141 689 159 707 q 123 642 123 672 q 141 596 123 614 q 190 579 159 579 q 201 581 195 579 q 214 585 208 583 m 810 -278 l 696 -278 l 696 525 q 688 596 696 567 q 661 647 679 625 q 614 677 642 668 q 543 686 585 686 q 445 663 488 686 q 328 575 401 639 l 328 117 q 291 22 328 56 q 189 -12 255 -12 q 86 22 121 -12 q 51 117 51 56 q 85 212 51 178 q 183 245 119 245 q 200 245 191 245 q 214 243 209 244 l 214 515 q 201 515 208 515 q 190 514 195 514 q 89 547 126 514 q 51 642 51 581 q 86 737 51 703 q 189 771 121 771 q 284 743 252 771 q 323 667 316 714 q 438 751 385 724 q 550 778 488 778 l 556 778 q 664 763 619 778 q 745 716 709 749 q 795 634 780 684 q 810 525 810 585 l 810 -278 m 123 117 q 141 70 123 86 q 190 53 159 53 q 236 70 218 53 q 254 117 254 86 q 236 162 254 144 q 190 179 218 179 q 141 162 159 179 q 123 117 123 144 z "},"໘":{"ha":922,"x_min":111,"x_max":870,"o":"m 731 -208 q 780 -191 762 -208 q 798 -144 798 -174 q 780 -99 798 -115 q 731 -82 762 -82 q 684 -99 702 -82 q 666 -144 666 -115 q 684 -191 666 -174 q 731 -208 702 -208 m 358 -334 q 283 -303 311 -334 q 256 -237 256 -272 q 311 -140 256 -180 l 661 132 l 661 521 q 656 600 661 567 q 641 651 651 632 q 618 679 631 669 q 589 689 605 689 q 560 679 572 689 q 540 655 548 669 q 524 624 532 642 q 505 592 516 607 q 476 569 494 578 q 437 559 459 559 q 395 570 413 559 q 367 595 377 581 q 350 624 356 610 q 335 651 344 637 q 314 677 326 665 q 287 689 302 689 q 254 676 266 688 q 236 644 243 665 q 224 591 229 623 q 220 521 220 559 l 220 318 q 235 319 223 318 q 255 319 247 319 q 352 286 317 319 q 387 192 387 253 q 352 97 387 131 q 250 62 316 62 q 146 97 182 62 q 111 192 111 131 l 111 521 q 124 647 111 597 q 163 724 137 696 q 217 765 189 753 q 288 778 245 778 q 379 745 342 778 q 437 650 416 713 q 499 745 462 711 q 587 778 536 778 q 663 764 634 778 q 719 722 691 750 q 759 640 747 693 q 770 521 770 586 l 770 216 l 806 243 l 848 187 l 770 127 l 770 75 q 762 34 770 57 q 736 -16 753 11 q 833 -50 795 -17 q 870 -144 870 -83 q 834 -243 870 -205 q 731 -281 798 -281 q 642 -254 677 -281 q 597 -183 606 -228 l 434 -310 q 358 -334 405 -334 m 370 -261 q 394 -252 381 -261 l 589 -100 q 643 -46 625 -72 q 661 4 661 -21 l 661 43 l 349 -199 q 336 -228 336 -210 q 345 -253 336 -244 q 370 -261 355 -261 m 248 126 q 297 144 279 126 q 315 192 315 161 q 297 237 315 220 q 248 254 279 254 q 202 237 220 254 q 184 192 184 220 q 202 144 184 161 q 248 126 220 126 z "},"໙":{"ha":922,"x_min":100,"x_max":822,"o":"m 237 52 q 284 69 267 52 q 302 115 302 86 q 284 161 302 144 q 237 178 267 178 q 192 161 210 178 q 174 115 174 144 q 192 69 174 86 q 237 52 210 52 m 634 -14 q 494 34 544 -14 q 444 178 444 81 l 444 558 q 415 657 444 624 q 326 690 386 690 q 237 655 265 690 q 208 554 208 619 l 208 241 q 224 243 212 243 q 244 244 236 244 q 341 210 307 244 q 376 115 376 176 q 340 20 376 54 q 239 -14 304 -14 q 136 20 172 -14 q 100 115 100 54 l 100 554 q 159 712 100 653 q 326 771 218 771 q 500 708 446 771 q 554 558 554 644 l 554 178 q 573 102 554 126 q 634 77 593 78 l 638 77 q 694 100 676 77 q 713 178 713 123 l 713 764 l 822 764 l 822 178 q 777 42 822 97 q 634 -14 732 -12 z "},"ໜ":{"ha":1404,"x_min":51,"x_max":1293,"o":"m 190 579 q 236 596 218 579 q 254 642 254 614 q 236 689 254 672 q 190 707 218 707 q 141 689 159 707 q 123 642 123 672 q 141 596 123 614 q 190 579 159 579 m 522 579 q 533 581 527 579 q 545 586 540 583 l 545 676 q 522 707 545 707 q 474 689 491 707 q 456 642 456 672 q 474 596 456 614 q 522 579 491 579 m 1101 -14 q 1012 24 1053 -14 q 939 117 972 62 q 864 21 913 56 q 734 -14 814 -14 l 699 -14 l 699 78 l 734 78 q 825 117 802 78 q 848 227 848 157 l 848 525 q 835 637 848 596 q 790 679 822 679 q 720 651 755 679 q 659 590 684 624 l 659 237 q 586 52 659 117 q 368 -14 513 -14 q 156 53 234 -12 q 79 240 79 118 q 108 368 79 315 q 168 449 137 421 q 214 492 199 476 q 233 524 229 509 q 183 514 214 514 q 85 547 119 514 q 51 642 51 581 q 86 737 51 703 q 189 771 121 771 q 309 726 271 771 q 347 616 347 681 q 327 529 347 574 q 271 437 307 484 q 216 341 235 390 q 197 243 197 293 q 242 122 197 165 q 369 79 288 79 l 375 79 q 508 122 471 79 q 545 237 545 165 l 545 515 q 534 514 540 514 l 522 514 q 421 547 459 514 q 382 642 382 581 q 419 737 382 703 q 520 771 455 771 q 608 748 577 771 q 651 688 640 725 q 715 744 677 717 q 804 771 752 771 q 923 709 884 771 q 962 525 962 647 l 962 220 q 1027 113 993 147 q 1101 79 1062 79 q 1160 116 1141 79 q 1179 227 1179 153 l 1179 764 l 1293 764 l 1293 227 q 1253 56 1293 126 q 1101 -14 1213 -14 z "},"ໝ":{"ha":1404,"x_min":51,"x_max":1293,"o":"m 190 579 q 236 596 218 579 q 254 642 254 614 q 236 689 254 672 q 190 707 218 707 q 141 689 159 707 q 123 642 123 672 q 141 596 123 614 q 190 579 159 579 m 522 579 q 533 581 527 579 q 545 586 540 583 l 545 676 q 522 707 545 707 q 474 689 491 707 q 456 642 456 672 q 474 596 456 614 q 522 579 491 579 m 1101 -14 q 1029 13 1065 -14 q 960 87 994 40 q 918 14 952 40 q 823 -12 883 -12 q 722 22 758 -12 q 686 117 686 56 q 720 212 686 178 q 817 245 755 245 q 836 245 826 245 q 848 243 845 244 l 848 525 q 835 637 848 596 q 790 679 822 679 q 720 651 755 679 q 659 590 684 624 l 659 237 q 586 52 659 117 q 368 -14 513 -14 q 156 53 234 -12 q 79 240 79 118 q 108 368 79 315 q 168 449 137 421 q 214 492 199 476 q 233 524 229 509 q 183 514 214 514 q 85 547 119 514 q 51 642 51 581 q 86 737 51 703 q 189 771 121 771 q 309 726 271 771 q 347 616 347 681 q 327 529 347 574 q 271 437 307 484 q 216 341 235 390 q 197 243 197 293 q 242 122 197 165 q 369 79 288 79 l 375 79 q 508 122 471 79 q 545 237 545 165 l 545 515 q 534 514 540 514 l 522 514 q 421 547 459 514 q 382 642 382 581 q 419 737 382 703 q 520 771 455 771 q 608 748 577 771 q 651 688 640 725 q 715 744 677 717 q 804 771 752 771 q 923 709 884 771 q 962 525 962 647 l 962 220 q 1027 113 993 147 q 1101 79 1062 79 q 1160 116 1141 79 q 1179 227 1179 153 l 1179 764 l 1293 764 l 1293 227 q 1253 56 1293 126 q 1101 -14 1213 -14 m 825 53 q 871 70 852 53 q 890 117 890 86 q 871 162 890 144 q 825 179 852 179 q 777 162 795 179 q 759 117 759 144 q 777 70 759 86 q 825 53 795 53 z "}}}
